<?xml version="1.0" standalone="no"?>
<!DOCTYPE svg PUBLIC "-//W3C//DTD SVG 20010904//EN"
 "http://www.w3.org/TR/2001/REC-SVG-20010904/DTD/svg10.dtd">
<svg version="1.0" xmlns="http://www.w3.org/2000/svg"
 width="1280.000000pt" height="940.000000pt" viewBox="0 0 1280.000000 940.000000"
 preserveAspectRatio="xMidYMid meet">
<metadata>
Created by potrace 1.15, written by Peter Selinger 2001-2017
</metadata>
<g transform="translate(0.000000,940.000000) scale(0.100000,-0.100000)"
fill="#ff9800" stroke="none">
<path d="M1859 9297 c-60 -22 -95 -52 -299 -253 -107 -105 -211 -200 -230
-210 -31 -16 -69 -19 -315 -24 -260 -5 -283 -7 -320 -27 -101 -53 -108 -79
-114 -414 l-6 -276 -29 -43 c-16 -24 -113 -130 -216 -235 -103 -105 -195 -206
-205 -225 -24 -45 -24 -125 0 -170 10 -19 105 -123 211 -231 108 -111 196
-208 199 -222 4 -14 4 -36 0 -49 -5 -13 -92 -108 -195 -213 -102 -104 -197
-208 -210 -230 -34 -56 -33 -126 3 -188 15 -26 113 -134 217 -241 200 -204
207 -216 173 -266 -9 -14 -96 -106 -194 -206 -304 -308 -304 -318 23 -650 165
-168 188 -195 188 -224 0 -28 -23 -55 -194 -229 -206 -210 -239 -256 -239
-331 0 -75 33 -121 239 -331 172 -174 194 -200 194 -229 0 -28 -23 -55 -196
-231 -251 -256 -271 -295 -219 -408 19 -40 71 -100 220 -251 173 -175 195
-202 195 -230 0 -29 -18 -52 -143 -179 -218 -223 -236 -243 -264 -290 -33 -54
-36 -119 -8 -176 11 -22 103 -126 210 -235 105 -107 202 -213 215 -235 24 -39
25 -46 31 -315 4 -166 11 -290 18 -313 15 -48 66 -99 117 -116 27 -10 123 -16
319 -20 247 -5 284 -8 315 -25 19 -10 123 -105 230 -211 116 -114 214 -202
240 -215 56 -29 122 -31 175 -5 23 11 122 99 230 206 105 102 200 191 212 198
47 24 61 15 259 -179 107 -104 215 -202 241 -216 56 -34 121 -37 178 -9 23 11
124 101 236 211 190 187 225 213 266 200 10 -3 104 -90 208 -192 105 -102 210
-197 234 -211 54 -33 119 -36 176 -8 23 11 125 102 236 212 110 107 208 195
222 198 14 4 35 4 47 0 13 -4 108 -91 212 -194 104 -102 208 -197 231 -211 56
-33 128 -33 185 0 22 14 126 109 231 212 105 104 200 190 214 193 14 4 36 4
48 0 13 -4 111 -94 219 -200 107 -106 211 -200 230 -210 53 -28 126 -25 180 7
25 15 131 111 235 213 105 102 200 188 212 191 12 3 32 2 45 -2 13 -4 111 -93
218 -198 112 -110 212 -200 235 -211 57 -28 122 -25 177 8 25 15 134 112 241
217 206 200 217 207 267 173 14 -9 108 -98 210 -198 104 -102 202 -189 225
-200 53 -26 119 -24 173 4 25 13 130 106 242 217 202 197 216 207 263 183 12
-6 106 -94 208 -195 313 -309 324 -309 644 7 111 109 202 190 217 194 14 4 37
1 50 -5 12 -7 106 -95 208 -195 315 -311 325 -311 648 8 109 107 213 202 232
213 31 17 66 19 315 24 300 6 327 11 384 63 51 47 55 72 61 367 5 259 7 278
28 320 14 28 96 120 212 240 198 202 240 260 240 329 0 68 -38 120 -236 322
-112 113 -195 206 -199 221 -4 15 -1 36 6 50 7 12 97 109 201 215 306 311 306
314 -6 632 -110 112 -198 209 -201 224 -4 14 -1 36 6 49 6 12 97 109 200 214
306 311 306 317 0 628 -103 105 -194 202 -200 214 -7 13 -10 35 -6 50 4 15 87
108 199 221 314 320 314 324 8 635 -104 105 -194 202 -201 215 -7 13 -10 34
-6 49 4 15 88 109 199 221 201 205 236 254 236 327 0 64 -47 127 -235 319 -98
99 -184 190 -192 202 -10 15 -13 33 -8 50 4 16 82 104 196 220 214 217 247
267 235 349 -9 68 -45 114 -248 320 -116 118 -194 206 -205 230 -14 32 -18 85
-22 309 -6 265 -7 272 -31 320 -20 38 -37 55 -75 75 -48 25 -55 25 -325 30
-242 5 -279 8 -310 24 -19 10 -125 107 -235 216 -218 214 -272 254 -344 254
-77 -1 -122 -34 -332 -240 -170 -168 -201 -194 -227 -194 -37 0 -40 3 -261
220 -91 89 -185 173 -209 188 -55 31 -119 34 -177 7 -23 -11 -123 -101 -242
-217 -220 -216 -229 -222 -289 -176 -16 12 -110 101 -209 198 -99 98 -195 185
-214 195 -46 23 -117 23 -166 0 -24 -11 -123 -101 -242 -217 -216 -212 -227
-219 -283 -182 -14 10 -106 97 -205 194 -99 97 -197 187 -218 200 -48 28 -118
30 -172 5 -24 -11 -121 -99 -241 -217 -190 -186 -204 -198 -239 -198 -35 0
-50 12 -234 193 -108 106 -214 204 -236 217 -49 30 -124 32 -175 5 -19 -10
-126 -107 -237 -216 -188 -185 -204 -199 -238 -199 -34 0 -51 14 -238 198
-119 116 -219 206 -242 217 -50 23 -120 24 -165 1 -19 -10 -116 -98 -215 -196
-99 -97 -193 -186 -209 -198 -60 -46 -70 -40 -285 172 -209 206 -255 239 -332
240 -71 0 -119 -35 -333 -244 -171 -167 -198 -190 -227 -190 -28 0 -55 23
-228 194 -210 206 -255 239 -332 240 -71 0 -124 -38 -335 -246 -169 -165 -196
-188 -224 -188 -28 0 -56 23 -230 194 -109 107 -215 203 -237 214 -54 28 -102
34 -144 19z m9771 -1035 c15 -12 25 -35 31 -68 4 -27 7 -1619 6 -3537 l-2
-3489 -28 -24 -28 -24 -5220 2 -5221 3 -19 24 c-19 23 -19 92 -19 3553 l0
3529 25 24 24 25 5214 0 c5023 0 5216 -1 5237 -18z"/>
</g>
</svg>
